HIERARCHY
ROOT joint_Root
{
	OFFSET 0.0 0.0 0.0
	CHANNELS 6 Xposition Yposition Zposition Zrotation Xrotation Yrotation 
	JOINT Hips
	{
		OFFSET 4.5925 91.4895 -427.239
		CHANNELS 6 Xposition Yposition Zposition Zrotation Xrotation Yrotation 
		JOINT Spine
		{
			OFFSET 15.7357 0.0 0.0
			CHANNELS 6 Xposition Yposition Zposition Zrotation Xrotation Yrotation 
			JOINT Chest
			{
				OFFSET 8.98455 -0.406207 0.0
				CHANNELS 6 Xposition Yposition Zposition Zrotation Xrotation Yrotation 
				JOINT Neck
				{
					OFFSET 16.3773 0.0 0.0
					CHANNELS 6 Xposition Yposition Zposition Zrotation Xrotation Yrotation 
					JOINT Head
					{
						OFFSET 6.45672 0.0 0.0
						CHANNELS 6 Xposition Yposition Zposition Zrotation Xrotation Yrotation 
						End Site
						{
							OFFSET 0.0 0.0 0.0
						}
					}
				}
				JOINT Shoulder_L
				{
					OFFSET 12.9942 -0.242716 4.98039
					CHANNELS 6 Xposition Yposition Zposition Zrotation Xrotation Yrotation 
					JOINT UpperArm_L
					{
						OFFSET 5.34809 0.0 0.0
						CHANNELS 6 Xposition Yposition Zposition Zrotation Xrotation Yrotation 
						JOINT LowerArm_L
						{
							OFFSET 24.3286 1.87007e-05 0.0
							CHANNELS 6 Xposition Yposition Zposition Zrotation Xrotation Yrotation 
							JOINT Hand_L
							{
								OFFSET 22.2916 0.0 0.0
								CHANNELS 6 Xposition Yposition Zposition Zrotation Xrotation Yrotation 
								End Site
								{
									OFFSET 0.0 0.0 0.0
								}
							}
						}
					}
				}
				JOINT Shoulder_R
				{
					OFFSET 12.9945 -0.242716 -4.98039
					CHANNELS 6 Xposition Yposition Zposition Zrotation Xrotation Yrotation 
					JOINT UpperArm_R
					{
						OFFSET -5.34813 0.0 0.0
						CHANNELS 6 Xposition Yposition Zposition Zrotation Xrotation Yrotation 
						JOINT LowerArm_R
						{
							OFFSET -24.3289 0.000322201 0.0
							CHANNELS 6 Xposition Yposition Zposition Zrotation Xrotation Yrotation 
							JOINT Hand_R
							{
								OFFSET -22.2915 -0.000108084 0.0
								CHANNELS 6 Xposition Yposition Zposition Zrotation Xrotation Yrotation 
								End Site
								{
									OFFSET 0.0 0.0 0.0
								}
							}
						}
					}
				}
			}
		}
		JOINT UpperLeg_L
		{
			OFFSET -2.19248 -6.46944 0.0
			CHANNELS 6 Xposition Yposition Zposition Zrotation Xrotation Yrotation 
			JOINT LowerLeg_L
			{
				OFFSET 39.0811 0.0 -1.23785e-05
				CHANNELS 6 Xposition Yposition Zposition Zrotation Xrotation Yrotation 
				JOINT Foot_L
				{
					OFFSET 40.9854 0.0 -1.26872e-05
					CHANNELS 6 Xposition Yposition Zposition Zrotation Xrotation Yrotation 
					JOINT Toes_L
					{
						OFFSET 11.7543 0.0 0.0
						CHANNELS 6 Xposition Yposition Zposition Zrotation Xrotation Yrotation 
						End Site
						{
							OFFSET 0.0 0.0 0.0
						}
					}
				}
			}
		}
		JOINT UpperLeg_R
		{
			OFFSET -2.19251 6.46944 0.0
			CHANNELS 6 Xposition Yposition Zposition Zrotation Xrotation Yrotation 
			JOINT LowerLeg_R
			{
				OFFSET -39.0811 -0.00228153 -0.0401928
				CHANNELS 6 Xposition Yposition Zposition Zrotation Xrotation Yrotation 
				JOINT Foot_R
				{
					OFFSET -40.9854 0.0 0.0
					CHANNELS 6 Xposition Yposition Zposition Zrotation Xrotation Yrotation 
					JOINT Toes_R
					{
						OFFSET -11.7543 0.0 0.0
						CHANNELS 6 Xposition Yposition Zposition Zrotation Xrotation Yrotation 
						End Site
						{
							OFFSET 0.0 0.0 0.0
						}
					}
				}
			}
		}
	}
}
MOTION
Frames:	4
Frame Time:	0.0333333
0.000000 0.000000 0.000000 0.000000 0.000000 -0.000000 -2.653970 90.235900 0.789524 89.849100 -5.894250 14.497300 15.735700 0.000005 -0.000001 79.236000 82.418500 -77.949600 8.984550 -0.406207 -0.000000 7.169910 -2.828520 2.747840 16.377300 -0.000001 -0.000001 30.687700 -10.094700 1.283920 6.456720 -0.000001 -0.000000 21.689400 -11.450300 5.061000 12.994200 -0.242716 4.980390 -88.632900 -3.575520 -69.059000 5.348090 -0.000007 -0.000001 -57.166100 -36.333000 -81.509000 24.328600 0.000019 0.000005 22.706200 8.174600 -71.231500 22.291600 -0.000001 0.000005 14.150400 5.299540 0.085354 12.994500 -0.242716 -4.980390 88.147500 10.431300 -79.871700 -5.348130 -0.000001 -0.000004 -63.671700 33.942600 -5.747730 -24.328900 0.000322 -0.000009 1.496100 4.941290 -16.879500 -22.291500 -0.000108 -0.000004 12.362500 5.399710 -2.928120 -2.192480 -6.469440 -0.000000 -172.158000 -13.482000 6.405070 39.081100 -0.000007 -0.000012 -0.239496 0.389752 31.570500 40.985400 -0.000006 -0.000013 -0.618171 6.071200 -72.656100 11.754300 -0.000000 0.000003 -0.000166 -0.001583 -16.637600 -2.192510 6.469440 -0.000001 173.089000 17.707900 -173.141000 -39.081100 -0.002282 -0.040193 -0.238546 0.392763 31.623200 -40.985400 0.000008 0.000006 4.831490 14.190400 -73.899400 -11.754300 -0.000006 -0.000006 -0.001196 -0.018157 -17.311500
0.000000 0.000000 0.000000 0.000000 0.000000 -0.000000 -2.730490 90.250100 0.744243 89.819800 -6.107700 14.510500 15.735700 0.000005 -0.000001 79.089600 82.398800 -77.794200 8.984550 -0.406207 -0.000000 7.202420 -2.873500 2.769420 16.377300 -0.000001 -0.000001 30.764400 -10.274500 1.344620 6.456720 -0.000001 -0.000000 21.660700 -11.709700 5.144040 12.994200 -0.242716 4.980390 -88.639000 -3.546130 -68.987200 5.348090 -0.000007 -0.000001 -57.536000 -36.557000 -81.696700 24.328600 0.000019 0.000005 22.603300 8.152180 -71.190900 22.291600 -0.000001 0.000005 14.189200 5.300850 0.048517 12.994500 -0.242716 -4.980390 88.137700 10.441100 -79.828600 -5.348130 -0.000001 -0.000004 -63.660200 33.928400 -5.731480 -24.328900 0.000322 -0.000009 1.470970 4.850630 -16.904000 -22.291500 -0.000108 -0.000004 12.475200 5.402730 -3.026530 -2.192480 -6.469440 -0.000000 -172.033000 -13.578800 6.461710 39.081100 -0.000007 -0.000012 -0.241491 0.394028 31.503600 40.985400 -0.000006 -0.000013 -0.695640 6.045930 -72.596600 11.754300 -0.000000 0.000003 -0.000177 -0.001673 -16.640900 -2.192510 6.469440 -0.000001 173.170000 17.681500 -173.144000 -39.081100 -0.002282 -0.040193 -0.241561 0.398523 31.567700 -40.985400 0.000008 0.000006 4.932070 14.336400 -73.859400 -11.754300 -0.000006 -0.000006 -0.001281 -0.019317 -17.358600
0.000000 0.000000 0.000000 0.000000 0.000000 -0.000000 -2.805480 90.252800 0.697554 89.796400 -6.345500 14.483600 15.735700 0.000005 -0.000001 79.005700 82.404600 -77.698900 8.984550 -0.406207 -0.000000 7.187280 -2.893300 2.793110 16.377300 -0.000001 -0.000001 30.808000 -10.436800 1.479150 6.456720 -0.000001 -0.000000 21.673200 -11.972500 5.206270 12.994200 -0.242716 4.980390 -88.643400 -3.528040 -68.951900 5.348090 -0.000007 -0.000001 -57.826300 -36.806700 -81.786100 24.328600 0.000019 0.000005 22.591600 8.128800 -71.230700 22.291600 -0.000001 0.000005 14.233100 5.300080 0.069932 12.994500 -0.242716 -4.980390 88.127400 10.453100 -79.784800 -5.348130 -0.000001 -0.000004 -63.604400 33.912300 -5.720820 -24.328900 0.000322 -0.000009 1.476980 4.838470 -17.009100 -22.291500 -0.000108 -0.000004 12.527400 5.402270 -3.011460 -2.192480 -6.469440 -0.000000 -171.899000 -13.789900 6.451670 39.081100 -0.000007 -0.000012 -0.242754 0.396087 31.503700 40.985400 -0.000006 -0.000013 -0.751932 6.045740 -72.566600 11.754300 -0.000000 0.000003 -0.000148 -0.001433 -16.632000 -2.192510 6.469440 -0.000001 173.270000 17.651400 -173.230000 -39.081100 -0.002282 -0.040193 -0.236354 0.389831 31.581800 -40.985400 0.000008 0.000006 5.050310 14.497300 -73.854000 -11.754300 -0.000006 -0.000006 -0.001274 -0.019227 -17.355000
0.000000 0.000000 0.000000 0.000000 0.000000 -0.000000 -2.873490 90.262500 0.648669 89.739600 -6.603270 14.440000 15.735700 0.000005 -0.000001 78.966800 82.421400 -77.637500 8.984550 -0.406207 -0.000000 7.153110 -2.897590 2.837430 16.377300 -0.000001 -0.000001 30.841600 -10.562900 1.608410 6.456720 -0.000001 -0.000000 21.705400 -12.195000 5.381270 12.994200 -0.242716 4.980390 -88.634900 -3.547040 -68.934100 5.348090 -0.000007 -0.000001 -58.064100 -37.069400 -81.817200 24.328600 0.000019 0.000005 22.469700 8.066500 -71.259100 22.291600 -0.000001 0.000005 14.271300 5.301080 0.041933 12.994500 -0.242716 -4.980390 88.122100 10.480300 -79.782200 -5.348130 -0.000001 -0.000004 -63.513200 33.885700 -5.726340 -24.328900 0.000322 -0.000009 1.480520 4.818220 -17.114900 -22.291500 -0.000108 -0.000004 12.456300 5.399840 -2.932400 -2.192480 -6.469440 -0.000000 -171.765000 -13.925600 6.441160 39.081100 -0.000007 -0.000012 -0.245780 0.401398 31.480000 40.985400 -0.000006 -0.000013 -0.833307 5.962950 -72.533200 11.754300 -0.000000 0.000003 -0.000166 -0.001583 -16.637600 -2.192510 6.469440 -0.000001 173.444000 17.541300 -173.319000 -39.081100 -0.002282 -0.040193 -0.229663 0.379502 31.544400 -40.985400 0.000008 0.000006 5.135550 14.579600 -73.809900 -11.754300 -0.000006 -0.000006 -0.001225 -0.018557 -17.327800
